# xmcd
#
# Track frame offsets:
#	150
#	22464
#	41419
#	59248
#	81428
#	101924
#	123849
#	140825
#	163012
#	179183
#
# Disc length: 2688 seconds
#
# Revision: 2
# Processed by: cddbd v1.5.1PL2 Copyright (c) Steve Scherf et al.
# Submitted via: audiograbber 1.82.02
#
DISCID=a00a7e0a
DTITLE=Marvin Gaye - Greatest Hits Live
DYEAR=2003
DGENRE=Soul
TTITLE0=Let's Get It On
TTITLE1=Distant Lover
TTITLE2=What's Going On
TTITLE3=Got to Give It Up
TTITLE4=I Want You
TTITLE5=How Sweet It Is
TTITLE6=I Heard It Throught The Grapevine
TTITLE7=Sexual Healing
TTITLE8=Ain't Nothing Like The Real Thing
TTITLE9=Inner City Blues
EXTD=
EXTT0=
EXTT1=
EXTT2=
EXTT3=
EXTT4=
EXTT5=
EXTT6=
EXTT7=
EXTT8=
EXTT9=
PLAYORDER=
